<!DOCTYPE svg PUBLIC "-//W3C//DTD SVG 1.1//EN" "https://www.w3.org/Graphics/SVG/1.1/DTD/svg11.dtd"><svg xmlns="http://www.w3.org/2000/svg" id="sfn-svg" class="sfn-workflow-graph" width="302" height="755">  
<g transform="translate(28.3359375,19.375)"><g class="nodes"><g class="node-container" transform="translate(61.71875,18.5)"><g class="node anchor"><circle class="shape" x="-15.875" y="-8.5" r="25.875"/><text class="label"><tspan xml:space="preserve" text-anchor="middle" alignment-baseline="central">Start</tspan></text></g></g><g class="node-container" transform="translate(61.71875,700.875)"><g class="node anchor"><circle class="shape" x="-12.1875" y="-8.5" r="22.1875"/><text class="label"><tspan xml:space="preserve" text-anchor="middle" alignment-baseline="central">End</tspan></text></g></g><g class="node-container" transform="translate(61.71875,80.53125)"><g class="node state Task NotYetStarted"><rect class="shape" rx="5" ry="5" x="-59.859375" y="-18.53125" width="119.71875" height="37.0625"/><text class="label"><tspan xml:space="preserve" text-anchor="middle" alignment-baseline="central">Get today's info</tspan></text></g></g><g class="node-container" transform="translate(61.71875,142.59375)"><g class="node state Choice NotYetStarted"><rect class="shape" rx="5" ry="5" x="-51.125" y="-18.53125" width="102.25" height="37.0625"/><text class="label"><tspan xml:space="preserve" text-anchor="middle" alignment-baseline="central">Is week day!?</tspan></text></g></g><g class="node-container" transform="translate(61.71875,638.875)"><g class="node state Succeed NotYetStarted"><rect class="shape" rx="5" ry="5" x="-61.71875" y="-18.5" width="123.4375" height="37"/><text class="label"><tspan xml:space="preserve" text-anchor="middle" alignment-baseline="central">Job end succeed</tspan></text></g></g><g class="node-container" transform="translate(139.7734375,204.625)"><g class="node state Task NotYetStarted"><rect class="shape" rx="5" ry="5" x="-63.296875" y="-18.5" width="126.59375" height="37"/><text class="label"><tspan xml:space="preserve" text-anchor="middle" alignment-baseline="central">Get random wait</tspan></text></g></g><g class="node-container" transform="translate(139.7734375,266.625)"><g class="node state Wait NotYetStarted"><rect class="shape" rx="5" ry="5" x="-58.53125" y="-18.5" width="117.0625" height="37"/><text class="label"><tspan xml:space="preserve" text-anchor="middle" alignment-baseline="central">Wait X Seconds</tspan></text></g></g><g class="node-container" transform="translate(139.7734375,328.65625)"><g class="node state Task NotYetStarted"><rect class="shape" rx="5" ry="5" x="-64.234375" y="-18.53125" width="128.46875" height="37.0625"/><text class="label"><tspan xml:space="preserve" text-anchor="middle" alignment-baseline="central">Create a meeting</tspan></text></g></g><g class="node-container" transform="translate(139.7734375,390.6875)"><g class="node state Task NotYetStarted"><rect class="shape" rx="5" ry="5" x="-98.046875" y="-18.5" width="196.09375" height="37"/><text class="label"><tspan xml:space="preserve" text-anchor="middle" alignment-baseline="central">Convert minutes to seconds</tspan></text></g></g><g class="node-container" transform="translate(139.7734375,452.71875)"><g class="node state Wait NotYetStarted"><rect class="shape" rx="5" ry="5" x="-121.109375" y="-18.53125" width="242.21875" height="37.0625"/><text class="label"><tspan xml:space="preserve" text-anchor="middle" alignment-baseline="central">Wait until the meeting has finished</tspan></text></g></g><g class="node-container" transform="translate(139.7734375,514.78125)"><g class="node state Task NotYetStarted"><rect class="shape" rx="5" ry="5" x="-65.34375" y="-18.53125" width="130.6875" height="37.0625"/><text class="label"><tspan xml:space="preserve" text-anchor="middle" alignment-baseline="central">Stop the meeting</tspan></text></g></g><g class="node-container" transform="translate(139.7734375,576.84375)"><g class="node state Task NotYetStarted"><rect class="shape" rx="5" ry="5" x="-71.09375" y="-18.53125" width="142.1875" height="37.0625"/><text class="label"><tspan xml:space="preserve" text-anchor="middle" alignment-baseline="central">Delete the meeting</tspan></text></g></g></g><g class="edges"><g class="edge"><path class="path" marker-end="url(#arrowhead61)" d="M61.71875,99.0625L61.718749999999986,101.14583333333331C61.71874999999999,103.22916666666666,61.71874999999999,107.39583333333333,61.718749999999986,111.56249999999999C61.71874999999999,115.72916666666666,61.71874999999999,119.89583333333333,61.718749999999986,121.97916666666666L61.71875,124.0625" style="fill: none;"/><defs><marker id="arrowhead61" viewBox="0 0 10 10" refX="9" refY="5" markerUnits="strokeWidth" markerWidth="8" markerHeight="6" orient="auto"><path d="M 0 0 L 10 5 L 0 10 z"/></marker></defs></g><g class="edge"><path class="path" marker-end="url(#arrowhead62)" d="M61.71875,44.375L61.718749999999986,45.229166666666664C61.71874999999999,46.08333333333333,61.71874999999999,47.791666666666664,61.718749999999986,50.72916666666667C61.71874999999999,53.666666666666664,61.71874999999999,57.83333333333333,61.718749999999986,59.91666666666666L61.71875,62" style="fill: none;"/><defs><marker id="arrowhead62" viewBox="0 0 10 10" refX="9" refY="5" markerUnits="strokeWidth" markerWidth="8" markerHeight="6" orient="auto"><path d="M 0 0 L 10 5 L 0 10 z"/></marker></defs></g><g class="edge"><path class="path" marker-end="url(#arrowhead63)" d="M15.106031281470294,161.125L9.865703151225244,163.20833333333331C4.625375020980195,165.29166666666666,-5.855281239509902,169.45833333333331,-11.095609369754952,176.70833333333331C-16.3359375,183.95833333333331,-16.3359375,194.29166666666666,-16.3359375,204.625C-16.3359375,214.95833333333331,-16.3359375,225.29166666666663,-16.3359375,235.62499999999997C-16.3359375,245.95833333333331,-16.3359375,256.29166666666663,-16.3359375,266.625C-16.3359375,276.9583333333333,-16.3359375,287.29166666666663,-16.3359375,297.6302083333333C-16.3359375,307.96875,-16.3359375,318.3125,-16.3359375,328.65625C-16.3359375,339,-16.3359375,349.34375,-16.3359375,359.68229166666663C-16.3359375,370.0208333333333,-16.3359375,380.35416666666663,-16.3359375,390.6875C-16.3359375,401.0208333333333,-16.3359375,411.35416666666663,-16.3359375,421.6927083333333C-16.3359375,432.03125,-16.3359375,442.375,-16.3359375,452.71875C-16.3359375,463.0625,-16.3359375,473.40625,-16.3359375,483.75C-16.3359375,494.09375,-16.3359375,504.4375,-16.3359375,514.78125C-16.3359375,525.125,-16.3359375,535.46875,-16.3359375,545.8125C-16.3359375,556.15625,-16.3359375,566.5,-16.3359375,576.84375C-16.3359375,587.1875,-16.3359375,597.53125,-11.09032678091398,604.7864583333334C-5.844716061827958,612.0416666666666,4.646505376344084,616.2083333333333,9.892116095430104,618.2916666666666L15.137726814516128,620.375" style="fill: none;"/><defs><marker id="arrowhead63" viewBox="0 0 10 10" refX="9" refY="5" markerUnits="strokeWidth" markerWidth="8" markerHeight="6" orient="auto"><path d="M 0 0 L 10 5 L 0 10 z"/></marker></defs></g><g class="edge"><path class="path" marker-end="url(#arrowhead64)" d="M108.3314687185297,161.125L113.57179684877474,163.20833333333331C118.8121249790198,165.29166666666666,129.2927812395099,169.45833333333331,134.53310936975492,173.625C139.7734375,177.79166666666666,139.7734375,181.95833333333331,139.77343749999997,184.04166666666666L139.7734375,186.125" style="fill: none;"/><defs><marker id="arrowhead64" viewBox="0 0 10 10" refX="9" refY="5" markerUnits="strokeWidth" markerWidth="8" markerHeight="6" orient="auto"><path d="M 0 0 L 10 5 L 0 10 z"/></marker></defs></g><g class="edge"><path class="path" marker-end="url(#arrowhead65)" d="M139.7734375,223.125L139.77343749999997,225.20833333333331C139.7734375,227.29166666666666,139.7734375,231.45833333333331,139.77343749999997,235.62499999999997C139.7734375,239.79166666666663,139.7734375,243.95833333333331,139.77343749999997,246.04166666666666L139.7734375,248.125" style="fill: none;"/><defs><marker id="arrowhead65" viewBox="0 0 10 10" refX="9" refY="5" markerUnits="strokeWidth" markerWidth="8" markerHeight="6" orient="auto"><path d="M 0 0 L 10 5 L 0 10 z"/></marker></defs></g><g class="edge"><path class="path" marker-end="url(#arrowhead66)" d="M139.7734375,285.125L139.77343749999997,287.2083333333333C139.7734375,289.29166666666663,139.7734375,293.4583333333333,139.77343749999997,297.625C139.7734375,301.79166666666663,139.7734375,305.9583333333333,139.77343749999997,308.0416666666667L139.7734375,310.125" style="fill: none;"/><defs><marker id="arrowhead66" viewBox="0 0 10 10" refX="9" refY="5" markerUnits="strokeWidth" markerWidth="8" markerHeight="6" orient="auto"><path d="M 0 0 L 10 5 L 0 10 z"/></marker></defs></g><g class="edge"><path class="path" marker-end="url(#arrowhead67)" d="M139.7734375,347.1875L139.77343749999997,349.2708333333333C139.7734375,351.35416666666663,139.7734375,355.5208333333333,139.77343749999997,359.6875C139.7734375,363.85416666666663,139.7734375,368.0208333333333,139.77343749999997,370.1041666666667L139.7734375,372.1875" style="fill: none;"/><defs><marker id="arrowhead67" viewBox="0 0 10 10" refX="9" refY="5" markerUnits="strokeWidth" markerWidth="8" markerHeight="6" orient="auto"><path d="M 0 0 L 10 5 L 0 10 z"/></marker></defs></g><g class="edge"><path class="path" marker-end="url(#arrowhead68)" d="M139.7734375,409.1875L139.77343749999997,411.27083333333326C139.7734375,413.35416666666663,139.7734375,417.5208333333333,139.77343749999997,421.68749999999994C139.7734375,425.85416666666663,139.7734375,430.0208333333333,139.77343749999997,432.10416666666663L139.7734375,434.1875" style="fill: none;"/><defs><marker id="arrowhead68" viewBox="0 0 10 10" refX="9" refY="5" markerUnits="strokeWidth" markerWidth="8" markerHeight="6" orient="auto"><path d="M 0 0 L 10 5 L 0 10 z"/></marker></defs></g><g class="edge"><path class="path" marker-end="url(#arrowhead69)" d="M139.7734375,471.25L139.77343749999997,473.33333333333326C139.7734375,475.41666666666663,139.7734375,479.5833333333333,139.77343749999997,483.74999999999994C139.7734375,487.91666666666663,139.7734375,492.0833333333333,139.77343749999997,494.16666666666663L139.7734375,496.25" style="fill: none;"/><defs><marker id="arrowhead69" viewBox="0 0 10 10" refX="9" refY="5" markerUnits="strokeWidth" markerWidth="8" markerHeight="6" orient="auto"><path d="M 0 0 L 10 5 L 0 10 z"/></marker></defs></g><g class="edge"><path class="path" marker-end="url(#arrowhead70)" d="M139.7734375,533.3125L139.77343749999997,535.3958333333333C139.7734375,537.4791666666666,139.7734375,541.6458333333333,139.77343749999997,545.8125C139.7734375,549.9791666666666,139.7734375,554.1458333333333,139.77343749999997,556.2291666666666L139.7734375,558.3125" style="fill: none;"/><defs><marker id="arrowhead70" viewBox="0 0 10 10" refX="9" refY="5" markerUnits="strokeWidth" markerWidth="8" markerHeight="6" orient="auto"><path d="M 0 0 L 10 5 L 0 10 z"/></marker></defs></g><g class="edge"><path class="path" marker-end="url(#arrowhead71)" d="M139.7734375,595.375L139.77343749999997,597.4583333333333C139.7734375,599.5416666666666,139.7734375,603.7083333333333,134.52782678091395,607.875C129.28221606182794,612.0416666666666,118.7909946236559,616.2083333333333,113.54538390456989,618.2916666666666L108.29977318548387,620.375" style="fill: none;"/><defs><marker id="arrowhead71" viewBox="0 0 10 10" refX="9" refY="5" markerUnits="strokeWidth" markerWidth="8" markerHeight="6" orient="auto"><path d="M 0 0 L 10 5 L 0 10 z"/></marker></defs></g><g class="edge"><path class="path" marker-end="url(#arrowhead72)" d="M61.71875,657.375L61.718749999999986,659.4583333333334C61.71874999999999,661.5416666666666,61.71874999999999,665.7083333333333,61.718749999999986,669.2604166666666C61.71874999999999,672.8125,61.71874999999999,675.75,61.718749999999986,677.21875L61.71875,678.6875" style="fill: none;"/><defs><marker id="arrowhead72" viewBox="0 0 10 10" refX="9" refY="5" markerUnits="strokeWidth" markerWidth="8" markerHeight="6" orient="auto"><path d="M 0 0 L 10 5 L 0 10 z"/></marker></defs></g></g></g><style xmlns="http://www.w3.org/1999/xhtml">.node &gt; .shape {stroke: #555555;stroke-width: 0.6px;fill: #FFFFFF;} path {stroke: #555;background-color: #555;stroke-width: 1px;} .node.state.NotYetStarted &gt; .shape,.node.state.Container &gt; .shape {stroke-dasharray: 5 2;} .node.state.Failed &gt; .shape,rect.legend.Failed {fill: #DE322F;} .node.state.CaughtError &gt; .shape,rect.legend.CaughtError {fill: #FFA500;} .node.state.Succeeded &gt; .shape,rect.legend.Succeeded {fill: #2BD62E;} .node.state.InProgress &gt; .shape,rect.legend.InProgress {fill: #53c9ed;} .node.state.Cancelled &gt; .shape,rect.legend.Cancelled {fill: #dddddd;} .node.anchor &gt; .shape {fill: #FFDA75;} .node.state.hovered:not(.selected):not(.NotYetStarted) &gt; .shape,.node.selected &gt; .shape {stroke: #555555;stroke-width: 2px;} .node.state.Container.Failed &gt; .shape {fill: #EE9592;} .node.state.Container.CaughtError &gt; .shape {fill: #FFD27F;} .node.state.Container.Succeeded &gt; .shape {fill: #91EA9A;} .node.state.Container.InProgress &gt; .shape {fill :#A9E4F7;} .node.state.Container.Cancelled &gt; .shape {fill: #EEEEEE;} marker {fill: #555555;} .node.anchor,.node.state.NotYetStarted {cursor: default;} .node.state {cursor: pointer;} tspan .label {font-weight: normal;font-size: 12px;text-shadow: none;} </style></svg>